<?xml version="1.0" encoding="UTF-8"?>
<svg width="200px" height="200px" viewBox="0 0 200 200" version="1.1" xmlns="http://www.w3.org/2000/svg">
    <title>DocBot - Happy</title>
    <g id="mascot-happy" stroke="none" stroke-width="1" fill="none" fill-rule="evenodd">
        <!-- Corps principal - Dossier -->
        <rect id="body" fill="#4CAF50" x="50" y="60" width="100" height="80" rx="10"></rect>
        <rect id="folder-tab" fill="#4CAF50" x="60" y="50" width="40" height="15" rx="5"></rect>
        
        <!-- Yeux joyeux -->
        <circle id="eye-left" fill="#FFFFFF" cx="80" cy="85" r="12"></circle>
        <circle id="eye-right" fill="#FFFFFF" cx="120" cy="85" r="12"></circle>
        <circle id="pupil-left" fill="#333333" cx="80" cy="85" r="4"></circle>
        <circle id="pupil-right" fill="#333333" cx="120" cy="85" r="4"></circle>
        
        <!-- Sourcils heureux -->
        <rect id="eyebrow-left" fill="#333333" x="70" y="70" width="20" height="5" rx="2" transform="rotate(15 70 70)"></rect>
        <rect id="eyebrow-right" fill="#333333" x="110" y="70" width="20" height="5" rx="2" transform="rotate(-15 110 70)"></rect>
        
        <!-- Bouche souriante -->
        <path d="M85,115 C85,125 115,125 115,115" id="mouth" stroke="#333333" stroke-width="4" stroke-linecap="round" fill="#FFFFFF"></path>
        
        <!-- Bras levés en signe de victoire -->
        <rect id="arm-left" fill="#4CAF50" x="40" y="75" width="20" height="10" rx="5" transform="rotate(-45 40 75)"></rect>
        <rect id="arm-right" fill="#4CAF50" x="140" y="75" width="20" height="10" rx="5" transform="rotate(45 140 75)"></rect>
        
        <!-- Effets de joie -->
        <path d="M50,40 L60,60" id="sparkle-1" stroke="#FFD700" stroke-width="2" stroke-linecap="round"></path>
        <path d="M150,40 L140,60" id="sparkle-2" stroke="#FFD700" stroke-width="2" stroke-linecap="round"></path>
        <path d="M40,100 L50,110" id="sparkle-3" stroke="#FFD700" stroke-width="2" stroke-linecap="round"></path>
        <path d="M160,100 L150,110" id="sparkle-4" stroke="#FFD700" stroke-width="2" stroke-linecap="round"></path>
        
        <!-- Étoile sur le dessus -->
        <path d="M100,35 L105,45 L115,47 L107.5,55 L110,65 L100,60 L90,65 L92.5,55 L85,47 L95,45 Z" id="star" fill="#FFD700"></path>
    </g>
</svg>