<?xml version="1.0" encoding="UTF-8"?>
<svg width="200px" height="200px" viewBox="0 0 200 200" version="1.1" xmlns="http://www.w3.org/2000/svg">
    <title>DocBot - Sad</title>
    <g id="mascot-sad" stroke="none" stroke-width="1" fill="none" fill-rule="evenodd">
        <!-- Corps principal - Dossier -->
        <rect id="body" fill="#F44336" x="50" y="60" width="100" height="80" rx="10"></rect>
        <rect id="folder-tab" fill="#F44336" x="60" y="50" width="40" height="15" rx="5"></rect>
        
        <!-- Yeux tristes -->
        <circle id="eye-left" fill="#FFFFFF" cx="80" cy="90" r="12"></circle>
        <circle id="eye-right" fill="#FFFFFF" cx="120" cy="90" r="12"></circle>
        <circle id="pupil-left" fill="#333333" cx="80" cy="95" r="5"></circle>
        <circle id="pupil-right" fill="#333333" cx="120" cy="95" r="5"></circle>
        
        <!-- Sourcils inquiets -->
        <rect id="eyebrow-left" fill="#333333" x="70" y="70" width="20" height="5" rx="2" transform="rotate(30 70 70)"></rect>
        <rect id="eyebrow-right" fill="#333333" x="110" y="70" width="20" height="5" rx="2" transform="rotate(-30 110 70)"></rect>
        
        <!-- Bouche tristesse -->
        <path d="M85,125 C85,115 115,115 115,125" id="mouth" stroke="#333333" stroke-width="3" stroke-linecap="round"></path>
        
        <!-- Bras baissés -->
        <rect id="arm-left" fill="#F44336" x="40" y="100" width="20" height="10" rx="5" transform="rotate(30 40 100)"></rect>
        <rect id="arm-right" fill="#F44336" x="140" y="100" width="20" height="10" rx="5" transform="rotate(-30 140 100)"></rect>
        
        <!-- Larmes -->
        <path d="M75,105 Q73,115 75,120" id="tear-left" stroke="#A7D5FF" stroke-width="4" stroke-linecap="round"></path>
        <path d="M125,105 Q127,115 125,120" id="tear-right" stroke="#A7D5FF" stroke-width="4" stroke-linecap="round"></path>
        
        <!-- Fichier déchiré -->
        <path d="M90,30 L110,30 L110,50 L115,55 L110,60 L105,55 L100,60 L95,55 L90,60 L85,55 L90,50 Z" id="broken-file" fill="#EEEEEE" stroke="#CCCCCC"></path>
        <path d="M95,40 L105,40" id="broken-file-line1" stroke="#CCCCCC" stroke-width="2" stroke-linecap="round"></path>
        <path d="M95,45 L105,45" id="broken-file-line2" stroke="#CCCCCC" stroke-width="2" stroke-linecap="round"></path>
    </g>
</svg>